<mxfile host="app.diagrams.net" modified="2020-07-31T08:38:47.362Z" agent="5.0 (Windows NT 10.0; Win64; x64) AppleWebKit/537.36 (KHTML, like Gecko) Chrome/70.0.3538.67 Safari/537.36" etag="n64JFnnWlWIPv5hQmlF6" version="13.5.5" type="github">
  <diagram id="5dPPpYAP-PKiB_ua91mX" name="Page-1">
    <mxGraphModel dx="4783" dy="829" grid="1" gridSize="10" guides="1" tooltips="1" connect="1" arrows="1" fold="1" page="1" pageScale="1" pageWidth="3300" pageHeight="4681" math="0" shadow="0">
      <root>
        <mxCell id="0" />
        <mxCell id="1" parent="0" />
        <mxCell id="3NJFldnpDI_Of29Jazui-77" value="Extends" style="endArrow=block;endSize=16;endFill=0;html=1;entryX=0.503;entryY=1.029;entryDx=0;entryDy=0;entryPerimeter=0;" edge="1" parent="1" source="3NJFldnpDI_Of29Jazui-73" target="3NJFldnpDI_Of29Jazui-58">
          <mxGeometry width="160" relative="1" as="geometry">
            <mxPoint x="-70" y="1430" as="sourcePoint" />
            <mxPoint x="90" y="1430" as="targetPoint" />
          </mxGeometry>
        </mxCell>
        <mxCell id="3NJFldnpDI_Of29Jazui-81" value="Extends" style="endArrow=block;endSize=16;endFill=0;html=1;exitX=0.5;exitY=0;exitDx=0;exitDy=0;" edge="1" parent="1" source="3NJFldnpDI_Of29Jazui-78">
          <mxGeometry width="160" relative="1" as="geometry">
            <mxPoint x="-70" y="1530" as="sourcePoint" />
            <mxPoint x="80" y="1420" as="targetPoint" />
          </mxGeometry>
        </mxCell>
        <mxCell id="3NJFldnpDI_Of29Jazui-30" value="JBDAdConfigBean" style="swimlane;fontStyle=0;childLayout=stackLayout;horizontal=1;startSize=26;fillColor=none;horizontalStack=0;resizeParent=1;resizeParentMax=0;resizeLast=0;collapsible=1;marginBottom=0;" vertex="1" parent="1">
          <mxGeometry x="2420" y="110" width="190" height="52" as="geometry" />
        </mxCell>
        <mxCell id="3NJFldnpDI_Of29Jazui-32" value="+jdbAdPlat" style="text;strokeColor=none;fillColor=none;align=left;verticalAlign=top;spacingLeft=4;spacingRight=4;overflow=hidden;rotatable=0;points=[[0,0.5],[1,0.5]];portConstraint=eastwest;" vertex="1" parent="3NJFldnpDI_Of29Jazui-30">
          <mxGeometry y="26" width="190" height="26" as="geometry" />
        </mxCell>
        <mxCell id="3NJFldnpDI_Of29Jazui-105" value="Extends" style="endArrow=block;endSize=16;endFill=0;html=1;exitX=0.698;exitY=-0.013;exitDx=0;exitDy=0;exitPerimeter=0;" edge="1" parent="1" source="3NJFldnpDI_Of29Jazui-87">
          <mxGeometry width="160" relative="1" as="geometry">
            <mxPoint x="690" y="1780" as="sourcePoint" />
            <mxPoint x="850" y="1780" as="targetPoint" />
          </mxGeometry>
        </mxCell>
        <mxCell id="3NJFldnpDI_Of29Jazui-107" value="Extends" style="endArrow=block;endSize=16;endFill=0;html=1;entryX=0.461;entryY=1.104;entryDx=0;entryDy=0;entryPerimeter=0;exitX=0.455;exitY=-0.014;exitDx=0;exitDy=0;exitPerimeter=0;" edge="1" parent="1" source="3NJFldnpDI_Of29Jazui-96" target="3NJFldnpDI_Of29Jazui-86">
          <mxGeometry width="160" relative="1" as="geometry">
            <mxPoint x="1150" y="1896" as="sourcePoint" />
            <mxPoint x="1000" y="1790" as="targetPoint" />
          </mxGeometry>
        </mxCell>
        <mxCell id="3NJFldnpDI_Of29Jazui-117" value="Extends" style="endArrow=block;endSize=16;endFill=0;html=1;entryX=0.461;entryY=1.104;entryDx=0;entryDy=0;entryPerimeter=0;exitX=0.22;exitY=-0.019;exitDx=0;exitDy=0;exitPerimeter=0;" edge="1" parent="1" source="3NJFldnpDI_Of29Jazui-108">
          <mxGeometry width="160" relative="1" as="geometry">
            <mxPoint x="1470" y="1910" as="sourcePoint" />
            <mxPoint x="1223.7200000000007" y="1776.004" as="targetPoint" />
          </mxGeometry>
        </mxCell>
        <mxCell id="3NJFldnpDI_Of29Jazui-124" value="Use" style="endArrow=open;endSize=12;dashed=1;html=1;exitX=0.434;exitY=0.974;exitDx=0;exitDy=0;exitPerimeter=0;entryX=0.478;entryY=0.002;entryDx=0;entryDy=0;entryPerimeter=0;" edge="1" parent="1" source="3NJFldnpDI_Of29Jazui-121" target="3NJFldnpDI_Of29Jazui-51">
          <mxGeometry width="160" relative="1" as="geometry">
            <mxPoint x="790" y="1450" as="sourcePoint" />
            <mxPoint x="950" y="1450" as="targetPoint" />
          </mxGeometry>
        </mxCell>
        <mxCell id="3NJFldnpDI_Of29Jazui-118" value="JBDADManager" style="swimlane;fontStyle=1;align=center;verticalAlign=top;childLayout=stackLayout;horizontal=1;startSize=26;horizontalStack=0;resizeParent=1;resizeParentMax=0;resizeLast=0;collapsible=1;marginBottom=0;" vertex="1" parent="1">
          <mxGeometry x="680" y="1220" width="710" height="140" as="geometry" />
        </mxCell>
        <mxCell id="3NJFldnpDI_Of29Jazui-119" value="factoryListï¼šarrayListOf&lt;JBDFactory&gt;" style="text;strokeColor=none;fillColor=none;align=left;verticalAlign=top;spacingLeft=4;spacingRight=4;overflow=hidden;rotatable=0;points=[[0,0.5],[1,0.5]];portConstraint=eastwest;" vertex="1" parent="3NJFldnpDI_Of29Jazui-118">
          <mxGeometry y="26" width="710" height="26" as="geometry" />
        </mxCell>
        <mxCell id="3NJFldnpDI_Of29Jazui-120" value="" style="line;strokeWidth=1;fillColor=none;align=left;verticalAlign=middle;spacingTop=-1;spacingLeft=3;spacingRight=3;rotatable=0;labelPosition=right;points=[];portConstraint=eastwest;" vertex="1" parent="3NJFldnpDI_Of29Jazui-118">
          <mxGeometry y="52" width="710" height="8" as="geometry" />
        </mxCell>
        <mxCell id="3NJFldnpDI_Of29Jazui-122" value="initAdPlatSDK(application: Application, list: List&lt;JBDAdConfigBean&gt;)" style="text;strokeColor=none;fillColor=none;align=left;verticalAlign=top;spacingLeft=4;spacingRight=4;overflow=hidden;rotatable=0;points=[[0,0.5],[1,0.5]];portConstraint=eastwest;" vertex="1" parent="3NJFldnpDI_Of29Jazui-118">
          <mxGeometry y="60" width="710" height="26" as="geometry" />
        </mxCell>
        <mxCell id="3NJFldnpDI_Of29Jazui-123" value="loadJBDAd(context: Context, jbdAdSlotBean: JBDAdSlotBean, jbdAdListener: JBDADListener)" style="text;strokeColor=none;fillColor=none;align=left;verticalAlign=top;spacingLeft=4;spacingRight=4;overflow=hidden;rotatable=0;points=[[0,0.5],[1,0.5]];portConstraint=eastwest;" vertex="1" parent="3NJFldnpDI_Of29Jazui-118">
          <mxGeometry y="86" width="710" height="26" as="geometry" />
        </mxCell>
        <mxCell id="3NJFldnpDI_Of29Jazui-121" value="loadJBDAdByType(mContext: Context, jbdFactory: JBDFactory, jbdAdSlotBean: JBDAdSlotBean, jbdAdListener: JBDADListener)" style="text;strokeColor=none;fillColor=none;align=left;verticalAlign=top;spacingLeft=4;spacingRight=4;overflow=hidden;rotatable=0;points=[[0,0.5],[1,0.5]];portConstraint=eastwest;" vertex="1" parent="3NJFldnpDI_Of29Jazui-118">
          <mxGeometry y="112" width="710" height="28" as="geometry" />
        </mxCell>
        <mxCell id="3NJFldnpDI_Of29Jazui-51" value="JBDFactory" style="swimlane;fontStyle=1;align=center;verticalAlign=top;childLayout=stackLayout;horizontal=1;startSize=26;horizontalStack=0;resizeParent=1;resizeParentMax=0;resizeLast=0;collapsible=1;marginBottom=0;" vertex="1" parent="1">
          <mxGeometry x="690" y="1560" width="620" height="216" as="geometry" />
        </mxCell>
        <mxCell id="3NJFldnpDI_Of29Jazui-52" value="jbdAdPlat: Int" style="text;strokeColor=none;fillColor=none;align=left;verticalAlign=top;spacingLeft=4;spacingRight=4;overflow=hidden;rotatable=0;points=[[0,0.5],[1,0.5]];portConstraint=eastwest;" vertex="1" parent="3NJFldnpDI_Of29Jazui-51">
          <mxGeometry y="26" width="620" height="26" as="geometry" />
        </mxCell>
        <mxCell id="3NJFldnpDI_Of29Jazui-53" value="" style="line;strokeWidth=1;fillColor=none;align=left;verticalAlign=middle;spacingTop=-1;spacingLeft=3;spacingRight=3;rotatable=0;labelPosition=right;points=[];portConstraint=eastwest;" vertex="1" parent="3NJFldnpDI_Of29Jazui-51">
          <mxGeometry y="52" width="620" height="8" as="geometry" />
        </mxCell>
        <mxCell id="3NJFldnpDI_Of29Jazui-54" value="initSDk(context: Application, jbdAdConfigBean: JBDAdConfigBean)" style="text;strokeColor=none;fillColor=none;align=left;verticalAlign=top;spacingLeft=4;spacingRight=4;overflow=hidden;rotatable=0;points=[[0,0.5],[1,0.5]];portConstraint=eastwest;" vertex="1" parent="3NJFldnpDI_Of29Jazui-51">
          <mxGeometry y="60" width="620" height="26" as="geometry" />
        </mxCell>
        <mxCell id="3NJFldnpDI_Of29Jazui-82" value="loadRewardedVideo(mActivity: Activity, jbdAdSlotBean: JBDAdSlotBean, jbdAdListener: RewardedVideoListener)" style="text;strokeColor=none;fillColor=none;align=left;verticalAlign=top;spacingLeft=4;spacingRight=4;overflow=hidden;rotatable=0;points=[[0,0.5],[1,0.5]];portConstraint=eastwest;" vertex="1" parent="3NJFldnpDI_Of29Jazui-51">
          <mxGeometry y="86" width="620" height="26" as="geometry" />
        </mxCell>
        <mxCell id="3NJFldnpDI_Of29Jazui-83" value="loadSplashAd(mContext: Context,jbdAdSlotBean: JBDAdSlotBean, jbdAdListener: JBDADListener)" style="text;strokeColor=none;fillColor=none;align=left;verticalAlign=top;spacingLeft=4;spacingRight=4;overflow=hidden;rotatable=0;points=[[0,0.5],[1,0.5]];portConstraint=eastwest;" vertex="1" parent="3NJFldnpDI_Of29Jazui-51">
          <mxGeometry y="112" width="620" height="26" as="geometry" />
        </mxCell>
        <mxCell id="3NJFldnpDI_Of29Jazui-84" value="loadInteractionExpressAd(mContext: Context,jbdAdSlotBean: JBDAdSlotBean, jbdAdListener: JBDADListener)" style="text;strokeColor=none;fillColor=none;align=left;verticalAlign=top;spacingLeft=4;spacingRight=4;overflow=hidden;rotatable=0;points=[[0,0.5],[1,0.5]];portConstraint=eastwest;" vertex="1" parent="3NJFldnpDI_Of29Jazui-51">
          <mxGeometry y="138" width="620" height="26" as="geometry" />
        </mxCell>
        <mxCell id="3NJFldnpDI_Of29Jazui-85" value="loadFlowAd(mContext: Context,jbdAdSlotBean: JBDAdSlotBean, jbdAdListener: JBDADListener)" style="text;strokeColor=none;fillColor=none;align=left;verticalAlign=top;spacingLeft=4;spacingRight=4;overflow=hidden;rotatable=0;points=[[0,0.5],[1,0.5]];portConstraint=eastwest;" vertex="1" parent="3NJFldnpDI_Of29Jazui-51">
          <mxGeometry y="164" width="620" height="26" as="geometry" />
        </mxCell>
        <mxCell id="3NJFldnpDI_Of29Jazui-86" value="loadBannerAd(jbdAdSlotBean: JBDAdSlotBean, jbdAdListener: JBDADListener)" style="text;strokeColor=none;fillColor=none;align=left;verticalAlign=top;spacingLeft=4;spacingRight=4;overflow=hidden;rotatable=0;points=[[0,0.5],[1,0.5]];portConstraint=eastwest;" vertex="1" parent="3NJFldnpDI_Of29Jazui-51">
          <mxGeometry y="190" width="620" height="26" as="geometry" />
        </mxCell>
        <mxCell id="3NJFldnpDI_Of29Jazui-87" value="CSJFactory" style="swimlane;fontStyle=1;align=center;verticalAlign=top;childLayout=stackLayout;horizontal=1;startSize=26;horizontalStack=0;resizeParent=1;resizeParentMax=0;resizeLast=0;collapsible=1;marginBottom=0;" vertex="1" parent="1">
          <mxGeometry x="60" y="1920" width="620" height="216" as="geometry" />
        </mxCell>
        <mxCell id="3NJFldnpDI_Of29Jazui-88" value="jbdAdPlat: Int" style="text;strokeColor=none;fillColor=none;align=left;verticalAlign=top;spacingLeft=4;spacingRight=4;overflow=hidden;rotatable=0;points=[[0,0.5],[1,0.5]];portConstraint=eastwest;" vertex="1" parent="3NJFldnpDI_Of29Jazui-87">
          <mxGeometry y="26" width="620" height="26" as="geometry" />
        </mxCell>
        <mxCell id="3NJFldnpDI_Of29Jazui-89" value="" style="line;strokeWidth=1;fillColor=none;align=left;verticalAlign=middle;spacingTop=-1;spacingLeft=3;spacingRight=3;rotatable=0;labelPosition=right;points=[];portConstraint=eastwest;" vertex="1" parent="3NJFldnpDI_Of29Jazui-87">
          <mxGeometry y="52" width="620" height="8" as="geometry" />
        </mxCell>
        <mxCell id="3NJFldnpDI_Of29Jazui-90" value="initSDk(context: Application, jbdAdConfigBean: JBDAdConfigBean)" style="text;strokeColor=none;fillColor=none;align=left;verticalAlign=top;spacingLeft=4;spacingRight=4;overflow=hidden;rotatable=0;points=[[0,0.5],[1,0.5]];portConstraint=eastwest;" vertex="1" parent="3NJFldnpDI_Of29Jazui-87">
          <mxGeometry y="60" width="620" height="26" as="geometry" />
        </mxCell>
        <mxCell id="3NJFldnpDI_Of29Jazui-91" value="loadRewardedVideo(mActivity: Activity, jbdAdSlotBean: JBDAdSlotBean, jbdAdListener: RewardedVideoListener)" style="text;strokeColor=none;fillColor=none;align=left;verticalAlign=top;spacingLeft=4;spacingRight=4;overflow=hidden;rotatable=0;points=[[0,0.5],[1,0.5]];portConstraint=eastwest;" vertex="1" parent="3NJFldnpDI_Of29Jazui-87">
          <mxGeometry y="86" width="620" height="26" as="geometry" />
        </mxCell>
        <mxCell id="3NJFldnpDI_Of29Jazui-92" value="loadSplashAd(mContext: Context,jbdAdSlotBean: JBDAdSlotBean, jbdAdListener: JBDADListener)" style="text;strokeColor=none;fillColor=none;align=left;verticalAlign=top;spacingLeft=4;spacingRight=4;overflow=hidden;rotatable=0;points=[[0,0.5],[1,0.5]];portConstraint=eastwest;" vertex="1" parent="3NJFldnpDI_Of29Jazui-87">
          <mxGeometry y="112" width="620" height="26" as="geometry" />
        </mxCell>
        <mxCell id="3NJFldnpDI_Of29Jazui-93" value="loadInteractionExpressAd(mContext: Context,jbdAdSlotBean: JBDAdSlotBean, jbdAdListener: JBDADListener)" style="text;strokeColor=none;fillColor=none;align=left;verticalAlign=top;spacingLeft=4;spacingRight=4;overflow=hidden;rotatable=0;points=[[0,0.5],[1,0.5]];portConstraint=eastwest;" vertex="1" parent="3NJFldnpDI_Of29Jazui-87">
          <mxGeometry y="138" width="620" height="26" as="geometry" />
        </mxCell>
        <mxCell id="3NJFldnpDI_Of29Jazui-94" value="loadFlowAd(mContext: Context,jbdAdSlotBean: JBDAdSlotBean, jbdAdListener: JBDADListener)" style="text;strokeColor=none;fillColor=none;align=left;verticalAlign=top;spacingLeft=4;spacingRight=4;overflow=hidden;rotatable=0;points=[[0,0.5],[1,0.5]];portConstraint=eastwest;" vertex="1" parent="3NJFldnpDI_Of29Jazui-87">
          <mxGeometry y="164" width="620" height="26" as="geometry" />
        </mxCell>
        <mxCell id="3NJFldnpDI_Of29Jazui-95" value="loadBannerAd(jbdAdSlotBean: JBDAdSlotBean, jbdAdListener: JBDADListener)" style="text;strokeColor=none;fillColor=none;align=left;verticalAlign=top;spacingLeft=4;spacingRight=4;overflow=hidden;rotatable=0;points=[[0,0.5],[1,0.5]];portConstraint=eastwest;" vertex="1" parent="3NJFldnpDI_Of29Jazui-87">
          <mxGeometry y="190" width="620" height="26" as="geometry" />
        </mxCell>
        <mxCell id="3NJFldnpDI_Of29Jazui-96" value="GTDFactory" style="swimlane;fontStyle=1;align=center;verticalAlign=top;childLayout=stackLayout;horizontal=1;startSize=26;horizontalStack=0;resizeParent=1;resizeParentMax=0;resizeLast=0;collapsible=1;marginBottom=0;" vertex="1" parent="1">
          <mxGeometry x="690" y="1920" width="620" height="216" as="geometry" />
        </mxCell>
        <mxCell id="3NJFldnpDI_Of29Jazui-97" value="jbdAdPlat: Int" style="text;strokeColor=none;fillColor=none;align=left;verticalAlign=top;spacingLeft=4;spacingRight=4;overflow=hidden;rotatable=0;points=[[0,0.5],[1,0.5]];portConstraint=eastwest;" vertex="1" parent="3NJFldnpDI_Of29Jazui-96">
          <mxGeometry y="26" width="620" height="26" as="geometry" />
        </mxCell>
        <mxCell id="3NJFldnpDI_Of29Jazui-98" value="" style="line;strokeWidth=1;fillColor=none;align=left;verticalAlign=middle;spacingTop=-1;spacingLeft=3;spacingRight=3;rotatable=0;labelPosition=right;points=[];portConstraint=eastwest;" vertex="1" parent="3NJFldnpDI_Of29Jazui-96">
          <mxGeometry y="52" width="620" height="8" as="geometry" />
        </mxCell>
        <mxCell id="3NJFldnpDI_Of29Jazui-99" value="initSDk(context: Application, jbdAdConfigBean: JBDAdConfigBean)" style="text;strokeColor=none;fillColor=none;align=left;verticalAlign=top;spacingLeft=4;spacingRight=4;overflow=hidden;rotatable=0;points=[[0,0.5],[1,0.5]];portConstraint=eastwest;" vertex="1" parent="3NJFldnpDI_Of29Jazui-96">
          <mxGeometry y="60" width="620" height="26" as="geometry" />
        </mxCell>
        <mxCell id="3NJFldnpDI_Of29Jazui-100" value="loadRewardedVideo(mActivity: Activity, jbdAdSlotBean: JBDAdSlotBean, jbdAdListener: RewardedVideoListener)" style="text;strokeColor=none;fillColor=none;align=left;verticalAlign=top;spacingLeft=4;spacingRight=4;overflow=hidden;rotatable=0;points=[[0,0.5],[1,0.5]];portConstraint=eastwest;" vertex="1" parent="3NJFldnpDI_Of29Jazui-96">
          <mxGeometry y="86" width="620" height="26" as="geometry" />
        </mxCell>
        <mxCell id="3NJFldnpDI_Of29Jazui-101" value="loadSplashAd(mContext: Context,jbdAdSlotBean: JBDAdSlotBean, jbdAdListener: JBDADListener)" style="text;strokeColor=none;fillColor=none;align=left;verticalAlign=top;spacingLeft=4;spacingRight=4;overflow=hidden;rotatable=0;points=[[0,0.5],[1,0.5]];portConstraint=eastwest;" vertex="1" parent="3NJFldnpDI_Of29Jazui-96">
          <mxGeometry y="112" width="620" height="26" as="geometry" />
        </mxCell>
        <mxCell id="3NJFldnpDI_Of29Jazui-102" value="loadInteractionExpressAd(mContext: Context,jbdAdSlotBean: JBDAdSlotBean, jbdAdListener: JBDADListener)" style="text;strokeColor=none;fillColor=none;align=left;verticalAlign=top;spacingLeft=4;spacingRight=4;overflow=hidden;rotatable=0;points=[[0,0.5],[1,0.5]];portConstraint=eastwest;" vertex="1" parent="3NJFldnpDI_Of29Jazui-96">
          <mxGeometry y="138" width="620" height="26" as="geometry" />
        </mxCell>
        <mxCell id="3NJFldnpDI_Of29Jazui-103" value="loadFlowAd(mContext: Context,jbdAdSlotBean: JBDAdSlotBean, jbdAdListener: JBDADListener)" style="text;strokeColor=none;fillColor=none;align=left;verticalAlign=top;spacingLeft=4;spacingRight=4;overflow=hidden;rotatable=0;points=[[0,0.5],[1,0.5]];portConstraint=eastwest;" vertex="1" parent="3NJFldnpDI_Of29Jazui-96">
          <mxGeometry y="164" width="620" height="26" as="geometry" />
        </mxCell>
        <mxCell id="3NJFldnpDI_Of29Jazui-104" value="loadBannerAd(jbdAdSlotBean: JBDAdSlotBean, jbdAdListener: JBDADListener)" style="text;strokeColor=none;fillColor=none;align=left;verticalAlign=top;spacingLeft=4;spacingRight=4;overflow=hidden;rotatable=0;points=[[0,0.5],[1,0.5]];portConstraint=eastwest;" vertex="1" parent="3NJFldnpDI_Of29Jazui-96">
          <mxGeometry y="190" width="620" height="26" as="geometry" />
        </mxCell>
        <mxCell id="3NJFldnpDI_Of29Jazui-108" value="KSFactory" style="swimlane;fontStyle=1;align=center;verticalAlign=top;childLayout=stackLayout;horizontal=1;startSize=26;horizontalStack=0;resizeParent=1;resizeParentMax=0;resizeLast=0;collapsible=1;marginBottom=0;" vertex="1" parent="1">
          <mxGeometry x="1340" y="1920" width="620" height="216" as="geometry" />
        </mxCell>
        <mxCell id="3NJFldnpDI_Of29Jazui-109" value="jbdAdPlat: Int" style="text;strokeColor=none;fillColor=none;align=left;verticalAlign=top;spacingLeft=4;spacingRight=4;overflow=hidden;rotatable=0;points=[[0,0.5],[1,0.5]];portConstraint=eastwest;" vertex="1" parent="3NJFldnpDI_Of29Jazui-108">
          <mxGeometry y="26" width="620" height="26" as="geometry" />
        </mxCell>
        <mxCell id="3NJFldnpDI_Of29Jazui-110" value="" style="line;strokeWidth=1;fillColor=none;align=left;verticalAlign=middle;spacingTop=-1;spacingLeft=3;spacingRight=3;rotatable=0;labelPosition=right;points=[];portConstraint=eastwest;" vertex="1" parent="3NJFldnpDI_Of29Jazui-108">
          <mxGeometry y="52" width="620" height="8" as="geometry" />
        </mxCell>
        <mxCell id="3NJFldnpDI_Of29Jazui-111" value="initSDk(context: Application, jbdAdConfigBean: JBDAdConfigBean)" style="text;strokeColor=none;fillColor=none;align=left;verticalAlign=top;spacingLeft=4;spacingRight=4;overflow=hidden;rotatable=0;points=[[0,0.5],[1,0.5]];portConstraint=eastwest;" vertex="1" parent="3NJFldnpDI_Of29Jazui-108">
          <mxGeometry y="60" width="620" height="26" as="geometry" />
        </mxCell>
        <mxCell id="3NJFldnpDI_Of29Jazui-112" value="loadRewardedVideo(mActivity: Activity, jbdAdSlotBean: JBDAdSlotBean, jbdAdListener: RewardedVideoListener)" style="text;strokeColor=none;fillColor=none;align=left;verticalAlign=top;spacingLeft=4;spacingRight=4;overflow=hidden;rotatable=0;points=[[0,0.5],[1,0.5]];portConstraint=eastwest;" vertex="1" parent="3NJFldnpDI_Of29Jazui-108">
          <mxGeometry y="86" width="620" height="26" as="geometry" />
        </mxCell>
        <mxCell id="3NJFldnpDI_Of29Jazui-113" value="loadSplashAd(mContext: Context,jbdAdSlotBean: JBDAdSlotBean, jbdAdListener: JBDADListener)" style="text;strokeColor=none;fillColor=none;align=left;verticalAlign=top;spacingLeft=4;spacingRight=4;overflow=hidden;rotatable=0;points=[[0,0.5],[1,0.5]];portConstraint=eastwest;" vertex="1" parent="3NJFldnpDI_Of29Jazui-108">
          <mxGeometry y="112" width="620" height="26" as="geometry" />
        </mxCell>
        <mxCell id="3NJFldnpDI_Of29Jazui-114" value="loadInteractionExpressAd(mContext: Context,jbdAdSlotBean: JBDAdSlotBean, jbdAdListener: JBDADListener)" style="text;strokeColor=none;fillColor=none;align=left;verticalAlign=top;spacingLeft=4;spacingRight=4;overflow=hidden;rotatable=0;points=[[0,0.5],[1,0.5]];portConstraint=eastwest;" vertex="1" parent="3NJFldnpDI_Of29Jazui-108">
          <mxGeometry y="138" width="620" height="26" as="geometry" />
        </mxCell>
        <mxCell id="3NJFldnpDI_Of29Jazui-115" value="loadFlowAd(mContext: Context,jbdAdSlotBean: JBDAdSlotBean, jbdAdListener: JBDADListener)" style="text;strokeColor=none;fillColor=none;align=left;verticalAlign=top;spacingLeft=4;spacingRight=4;overflow=hidden;rotatable=0;points=[[0,0.5],[1,0.5]];portConstraint=eastwest;" vertex="1" parent="3NJFldnpDI_Of29Jazui-108">
          <mxGeometry y="164" width="620" height="26" as="geometry" />
        </mxCell>
        <mxCell id="3NJFldnpDI_Of29Jazui-116" value="loadBannerAd(jbdAdSlotBean: JBDAdSlotBean, jbdAdListener: JBDADListener)" style="text;strokeColor=none;fillColor=none;align=left;verticalAlign=top;spacingLeft=4;spacingRight=4;overflow=hidden;rotatable=0;points=[[0,0.5],[1,0.5]];portConstraint=eastwest;" vertex="1" parent="3NJFldnpDI_Of29Jazui-108">
          <mxGeometry y="190" width="620" height="26" as="geometry" />
        </mxCell>
        <mxCell id="3NJFldnpDI_Of29Jazui-55" value="JBDADListener" style="swimlane;fontStyle=0;childLayout=stackLayout;horizontal=1;startSize=26;fillColor=none;horizontalStack=0;resizeParent=1;resizeParentMax=0;resizeLast=0;collapsible=1;marginBottom=0;" vertex="1" parent="1">
          <mxGeometry x="-140" y="1220" width="400" height="190" as="geometry">
            <mxRectangle x="660" y="310" width="110" height="26" as="alternateBounds" />
          </mxGeometry>
        </mxCell>
        <mxCell id="3NJFldnpDI_Of29Jazui-56" value="jbdADCLick(jbdAdBean: JBDAdSlotBean)" style="text;strokeColor=none;fillColor=none;align=left;verticalAlign=top;spacingLeft=4;spacingRight=4;overflow=hidden;rotatable=0;points=[[0,0.5],[1,0.5]];portConstraint=eastwest;" vertex="1" parent="3NJFldnpDI_Of29Jazui-55">
          <mxGeometry y="26" width="400" height="26" as="geometry" />
        </mxCell>
        <mxCell id="3NJFldnpDI_Of29Jazui-57" value="jbdADShow(jbdAdBean: JBDAdSlotBean)" style="text;strokeColor=none;fillColor=none;align=left;verticalAlign=top;spacingLeft=4;spacingRight=4;overflow=hidden;rotatable=0;points=[[0,0.5],[1,0.5]];portConstraint=eastwest;" vertex="1" parent="3NJFldnpDI_Of29Jazui-55">
          <mxGeometry y="52" width="400" height="26" as="geometry" />
        </mxCell>
        <mxCell id="3NJFldnpDI_Of29Jazui-68" value="unSupport(jbdAdBean: JBDAdSlotBean, error: JBDAdError)" style="text;strokeColor=none;fillColor=none;align=left;verticalAlign=top;spacingLeft=4;spacingRight=4;overflow=hidden;rotatable=0;points=[[0,0.5],[1,0.5]];portConstraint=eastwest;" vertex="1" parent="3NJFldnpDI_Of29Jazui-55">
          <mxGeometry y="78" width="400" height="26" as="geometry" />
        </mxCell>
        <mxCell id="3NJFldnpDI_Of29Jazui-71" value="jbdADShow(jbdAdBean: JBDAdSlotBean)" style="text;strokeColor=none;fillColor=none;align=left;verticalAlign=top;spacingLeft=4;spacingRight=4;overflow=hidden;rotatable=0;points=[[0,0.5],[1,0.5]];portConstraint=eastwest;" vertex="1" parent="3NJFldnpDI_Of29Jazui-55">
          <mxGeometry y="104" width="400" height="26" as="geometry" />
        </mxCell>
        <mxCell id="3NJFldnpDI_Of29Jazui-69" value="loadNextJBDAd()" style="text;strokeColor=none;fillColor=none;align=left;verticalAlign=top;spacingLeft=4;spacingRight=4;overflow=hidden;rotatable=0;points=[[0,0.5],[1,0.5]];portConstraint=eastwest;" vertex="1" parent="3NJFldnpDI_Of29Jazui-55">
          <mxGeometry y="130" width="400" height="26" as="geometry" />
        </mxCell>
        <mxCell id="3NJFldnpDI_Of29Jazui-58" value="jdbAdError(jbdAdBean: JBDAdSlotBean, error: JBDAdError)" style="text;strokeColor=none;fillColor=none;align=left;verticalAlign=top;spacingLeft=4;spacingRight=4;overflow=hidden;rotatable=0;points=[[0,0.5],[1,0.5]];portConstraint=eastwest;" vertex="1" parent="3NJFldnpDI_Of29Jazui-55">
          <mxGeometry y="156" width="400" height="34" as="geometry" />
        </mxCell>
        <mxCell id="3NJFldnpDI_Of29Jazui-73" value="RewardedVideoListener" style="swimlane;fontStyle=0;childLayout=stackLayout;horizontal=1;startSize=26;fillColor=none;horizontalStack=0;resizeParent=1;resizeParentMax=0;resizeLast=0;collapsible=1;marginBottom=0;" vertex="1" parent="1">
          <mxGeometry x="-340" y="1580" width="400" height="78" as="geometry" />
        </mxCell>
        <mxCell id="3NJFldnpDI_Of29Jazui-74" value="rewardedVideoClose(jbdAdSlotBean: JBDAdSlotBean)" style="text;strokeColor=none;fillColor=none;align=left;verticalAlign=top;spacingLeft=4;spacingRight=4;overflow=hidden;rotatable=0;points=[[0,0.5],[1,0.5]];portConstraint=eastwest;" vertex="1" parent="3NJFldnpDI_Of29Jazui-73">
          <mxGeometry y="26" width="400" height="26" as="geometry" />
        </mxCell>
        <mxCell id="3NJFldnpDI_Of29Jazui-75" value="onVideoComplete(jbdAdSlotBean: JBDAdSlotBean) " style="text;strokeColor=none;fillColor=none;align=left;verticalAlign=top;spacingLeft=4;spacingRight=4;overflow=hidden;rotatable=0;points=[[0,0.5],[1,0.5]];portConstraint=eastwest;" vertex="1" parent="3NJFldnpDI_Of29Jazui-73">
          <mxGeometry y="52" width="400" height="26" as="geometry" />
        </mxCell>
        <mxCell id="3NJFldnpDI_Of29Jazui-78" value="SplashAdListener" style="swimlane;fontStyle=0;childLayout=stackLayout;horizontal=1;startSize=26;fillColor=none;horizontalStack=0;resizeParent=1;resizeParentMax=0;resizeLast=0;collapsible=1;marginBottom=0;" vertex="1" parent="1">
          <mxGeometry x="100" y="1580" width="400" height="52" as="geometry" />
        </mxCell>
        <mxCell id="3NJFldnpDI_Of29Jazui-79" value="splashAdClose(jbdAdSlotBean: JBDAdSlotBean)" style="text;strokeColor=none;fillColor=none;align=left;verticalAlign=top;spacingLeft=4;spacingRight=4;overflow=hidden;rotatable=0;points=[[0,0.5],[1,0.5]];portConstraint=eastwest;" vertex="1" parent="3NJFldnpDI_Of29Jazui-78">
          <mxGeometry y="26" width="400" height="26" as="geometry" />
        </mxCell>
      </root>
    </mxGraphModel>
  </diagram>
</mxfile>
